<!-- Created with Inkscape (http://www.inkscape.org/) -->
<svg width="808" height="808" version="1.1" viewBox="0 0 808 808" xmlns="http://www.w3.org/2000/svg" xmlns:xlink="http://www.w3.org/1999/xlink">
 <defs>
  <clipPath id="clipPath4">
   <path d="m0 184h608v608h-608z"/>
  </clipPath>
  <clipPath id="clipPath6">
   <path d="m165.68 220.37h276.63v535.26h-276.63z"/>
  </clipPath>
 </defs>
 <g transform="translate(-1.3333 -242.02)">
  <path transform="matrix(1.3333 0 0 -1.3333 0 1296.7)" d="m139.96 791h328.09c40.776 0 65.242 0 81.553-6.8094 23.513-8.5581 42.035-27.08 50.593-50.593 6.8094-16.311 6.8094-40.776 6.8094-81.553v-328.09c0-40.776 0-65.242-6.8094-81.553-8.5581-23.513-27.08-42.035-50.593-50.593-16.311-6.8094-40.776-6.8094-81.553-6.8094h-328.09c-40.776 0-65.242 0-81.553 6.8094-23.513 8.5581-42.035 27.08-50.593 50.593-6.8094 16.311-6.8094 40.776-6.8094 81.553v328.09c0 40.776 0 65.242 6.8094 81.553 8.5581 23.513 27.08 42.035 50.593 50.593 16.311 6.8094 40.776 6.8094 81.553 6.8094z" clip-path="url(#clipPath4)" fill="#003f5c"/>
  <path transform="matrix(1.3333 0 0 -1.3333 0 1296.7)" d="m408.45 754.63-241.76-308.59 115.78-1.8331c0 1e-4 -65.748-217.29-67.575-222.76-1.8252-5.478 226.43 297.63 226.43 297.63h-111.4z" clip-path="url(#clipPath6)" fill="#00a2ff"/>
 </g>
</svg>
