<!-- Created with Inkscape (http://www.inkscape.org/) -->
<svg width="34.41" height="48" version="1.1" viewBox="0 0 754.95 1053.3" xmlns="http://www.w3.org/2000/svg" xmlns:xlink="http://www.w3.org/1999/xlink">
 <g transform="translate(-1.3333 -1.3333)" fill="#000000">
  <path d="m380.39 262.47c9.7671 0 24.787 1.0443 31.327 3.9435 16.524 6.0144 29.541 19.031 35.556 35.556 3.9435 10.687 3.9435 26.718 3.9435 53.436v45.752c0 26.718 0 42.748-3.9435 53.435-6.0144 16.524-19.031 29.541-35.556 35.556-6.5396 2.8993-21.56 3.9435-31.327 3.9435-9.7671 0-24.787-1.0441-31.327-3.9435-16.524-6.0144-29.541-19.031-35.556-35.556-3.9435-10.687-3.9435-26.718-3.9435-53.435v-45.752c0-26.718 0-42.748 3.9435-53.436 6.0144-16.524 19.031-29.541 35.556-35.556 6.5397-2.8992 21.56-3.9435 31.327-3.9435z"/>
  <path d="m309.56 353.24h141.65v-95.831h-141.65z"/>
  <path d="m72.159 330.27c9.767 0 24.787 1.0441 31.327 3.9435 16.524 6.0143 29.541 19.031 35.556 35.556 3.9435 10.687 3.9435 26.718 3.9435 53.435v281.42c0 26.718 0 42.748-3.9435 53.435-6.0143 16.524-19.031 29.541-35.556 35.556-6.5396 2.8993-21.56 3.9435-31.327 3.9435-9.767 0-24.787-1.0441-31.327-3.9435-16.524-6.0143-29.541-19.031-35.556-35.556-3.9435-10.687-3.9435-26.718-3.9435-53.435v-281.42c0-26.718 0-42.748 3.9435-53.435 6.0144-16.524 19.031-29.541 35.556-35.556 6.5396-2.8993 21.56-3.9435 31.327-3.9435z"/>
  <path d="m224.15 1.3334c9.7671 0 24.787 1.0441 31.327 3.9435 16.524 6.0144 29.541 19.031 35.556 35.556 3.9435 10.687 3.9435 26.718 3.9435 53.435v304.36c0 26.718 0 42.748-3.9435 53.435-6.0144 16.524-19.031 29.541-35.556 35.556-6.5397 2.8993-21.56 3.9435-31.327 3.9435s-24.787-1.0441-31.327-3.9435c-16.524-6.0144-29.541-19.031-35.556-35.556-3.9435-10.687-3.9435-26.718-3.9435-53.435v-304.36c0-26.718 0-42.748 3.9435-53.435 6.0144-16.524 19.031-29.541 35.556-35.556 6.5396-2.8993 21.56-3.9435 31.327-3.9435z"/>
  <path d="m532.37 262.47c9.7671 0 24.787 1.0443 31.327 3.9435 16.524 6.0144 29.541 19.031 35.556 35.556 3.9435 10.687 3.9435 26.718 3.9435 53.436v45.752c0 26.718 0 42.748-3.9435 53.435-6.0144 16.524-19.031 29.541-35.556 35.556-6.5396 2.8993-21.56 3.9435-31.327 3.9435-9.7669 0-24.787-1.0441-31.327-3.9435-16.524-6.0144-29.541-19.031-35.556-35.556-3.9435-10.687-3.9435-26.718-3.9435-53.435v-45.752c0-26.718 0-42.748 3.9435-53.436 6.0143-16.524 19.031-29.541 35.556-35.556 6.5396-2.8992 21.56-3.9435 31.327-3.9435z"/>
  <path d="m461.55 353.24h141.65v-95.831h-141.65z"/>
  <path d="m684.36 262.47c9.7669 0 24.787 1.0443 31.327 3.9435 16.524 6.0144 29.541 19.031 35.556 35.556 3.9435 10.687 3.9435 26.718 3.9435 53.436v45.752c0 26.718 0 42.748-3.9435 53.435-6.0144 16.524-19.031 29.541-35.556 35.556-6.5396 2.8993-21.56 3.9435-31.327 3.9435-9.7671 0-24.787-1.0441-31.327-3.9435-16.524-6.0144-29.541-19.031-35.556-35.556-3.9435-10.687-3.9435-26.718-3.9435-53.435v-45.752c0-26.718 0-42.748 3.9435-53.436 6.0144-16.524 19.031-29.541 35.556-35.556 6.5396-2.8992 21.56-3.9435 31.327-3.9435z"/>
  <path d="m613.53 353.24h141.65v-95.831h-141.65z"/>
  <path d="m157.58 817.19h598.7v-300.39h-598.7z"/>
  <path d="m326.11 902.74h261.63c26.847 0 42.954 0 53.693 4.0853 16.339 5.9468 29.209 18.818 35.156 35.156 3.2089 6.9851 4.0855 24.311 4.0855 36.721s-0.87653 29.736-4.0855 36.721c-5.9468 16.339-18.817 29.209-35.156 35.156-10.739 4.0853-26.846 4.0853-53.693 4.0853h-261.63c-26.846 0-42.954 0-53.693-4.0853-16.339-5.9469-29.209-18.818-35.156-35.156-3.2089-6.9851-4.0855-24.311-4.0855-36.721s0.87653-29.736 4.0855-36.721c5.9468-16.339 18.817-29.209 35.156-35.156 10.739-4.0853 26.846-4.0853 53.693-4.0853z"/>
  <path d="m72.159 330.27c9.767 0 24.787 1.0441 31.327 3.9435 16.524 6.0143 29.541 19.031 35.556 35.556 3.9435 10.687 3.9435 26.718 3.9435 53.435v281.42c0 26.718 0 42.748-3.9435 53.435-6.0143 16.524-19.031 29.541-35.556 35.556-6.5396 2.8993-21.56 3.9435-31.327 3.9435-9.767 0-24.787-1.0441-31.327-3.9435-16.524-6.0143-29.541-19.031-35.556-35.556-3.9435-10.687-3.9435-26.718-3.9435-53.435v-281.42c0-26.718 0-42.748 3.9435-53.435 6.0144-16.524 19.031-29.541 35.556-35.556 6.5396-2.8993 21.56-3.9435 31.327-3.9435z"/>
  <path d="m224.15 1.3334c9.7671 0 24.787 1.0441 31.327 3.9435 16.524 6.0144 29.541 19.031 35.556 35.556 3.9435 10.687 3.9435 26.718 3.9435 53.435v304.36c0 26.718 0 42.748-3.9435 53.435-6.0144 16.524-19.031 29.541-35.556 35.556-6.5397 2.8993-21.56 3.9435-31.327 3.9435s-24.787-1.0441-31.327-3.9435c-16.524-6.0144-29.541-19.031-35.556-35.556-3.9435-10.687-3.9435-26.718-3.9435-53.435v-304.36c0-26.718 0-42.748 3.9435-53.435 6.0144-16.524 19.031-29.541 35.556-35.556 6.5396-2.8993 21.56-3.9435 31.327-3.9435z"/>
  <path d="m532.37 262.47c9.7671 0 24.787 1.0443 31.327 3.9435 16.524 6.0144 29.541 19.031 35.556 35.556 3.9435 10.687 3.9435 26.718 3.9435 53.436v45.752c0 26.718 0 42.748-3.9435 53.435-6.0144 16.524-19.031 29.541-35.556 35.556-6.5396 2.8993-21.56 3.9435-31.327 3.9435-9.7669 0-24.787-1.0441-31.327-3.9435-16.524-6.0144-29.541-19.031-35.556-35.556-3.9435-10.687-3.9435-26.718-3.9435-53.435v-45.752c0-26.718 0-42.748 3.9435-53.436 6.0143-16.524 19.031-29.541 35.556-35.556 6.5396-2.8992 21.56-3.9435 31.327-3.9435z"/>
  <path d="m461.55 353.24h141.65v-95.831h-141.65z"/>
  <path d="m684.36 262.47c9.7669 0 24.787 1.0443 31.327 3.9435 16.524 6.0144 29.541 19.031 35.556 35.556 3.9435 10.687 3.9435 26.718 3.9435 53.436v45.752c0 26.718 0 42.748-3.9435 53.435-6.0144 16.524-19.031 29.541-35.556 35.556-6.5396 2.8993-21.56 3.9435-31.327 3.9435-9.7671 0-24.787-1.0441-31.327-3.9435-16.524-6.0144-29.541-19.031-35.556-35.556-3.9435-10.687-3.9435-26.718-3.9435-53.435v-45.752c0-26.718 0-42.748 3.9435-53.436 6.0144-16.524 19.031-29.541 35.556-35.556 6.5396-2.8992 21.56-3.9435 31.327-3.9435z"/>
  <path d="m613.53 353.24h141.65v-95.831h-141.65z"/>
  <path d="m157.58 817.19h598.7v-300.39h-598.7z"/>
  <path d="m233.18 991.82h447.5v-151.93h-447.5z"/>
 </g>
</svg>
